<svg width="16" height="16" viewBox="0 0 16 16" fill="none" xmlns="http://www.w3.org/2000/svg">
<path d="M8 1C11.866 1 15 4.13401 15 8C15 8.12082 14.8465 8.17165 14.7655 8.08201C13.8995 7.12357 12.647 6.52113 11.2535 6.52113C8.63989 6.52113 6.52113 8.63989 6.52113 11.2535C6.52113 12.647 7.12357 13.8995 8.08201 14.7655C8.17165 14.8465 8.12082 15 8 15C4.13401 15 1 11.866 1 8C1 4.13401 4.13401 1 8 1Z" fill="#FF5F5F"/>
<path d="M15 11.2535C15 13.3226 13.3226 15 11.2535 15C9.1844 15 7.50704 13.3226 7.50704 11.2535C7.50704 9.1844 9.1844 7.50704 11.2535 7.50704C13.3226 7.50704 15 9.1844 15 11.2535Z" fill="#FF5F5F"/>
</svg>
