<svg width="16" height="16" viewBox="0 0 16 16" fill="none" xmlns="http://www.w3.org/2000/svg">
<g clip-path="url(#clip0_2019_27)">
<path d="M7.81243 1.0069C7.87686 0.832778 8.12314 0.832778 8.18757 1.0069L9.99377 5.88807C10.014 5.94281 10.0572 5.98598 10.1119 6.00623L14.9931 7.81243C15.1672 7.87686 15.1672 8.12314 14.9931 8.18757L10.1119 9.99377C10.0572 10.014 10.014 10.0572 9.99377 10.1119L8.18757 14.9931C8.12314 15.1672 7.87686 15.1672 7.81243 14.9931L6.00623 10.1119C5.98598 10.0572 5.94282 10.014 5.88807 9.99377L1.0069 8.18757C0.832778 8.12314 0.832778 7.87686 1.0069 7.81243L5.88807 6.00623C5.94281 5.98598 5.98598 5.94282 6.00623 5.88807L7.81243 1.0069Z" fill="#FF5555"/>
</g>
<defs>
<clipPath id="clip0_2019_27">
<rect width="16" height="16" fill="white"/>
</clipPath>
</defs>
</svg>
